<svg xmlns="http://www.w3.org/2000/svg" xmlns:xlink="http://www.w3.org/1999/xlink" width="48.29" height="43.557" viewBox="0 0 48.29 43.557">
  <defs>
    <filter id="Path_4567" x="0" y="0" width="48.29" height="43.557" filterUnits="userSpaceOnUse">
      <feOffset dy="3" input="SourceAlpha"/>
      <feGaussianBlur stdDeviation="3" result="blur"/>
      <feFlood flood-opacity="0.059"/>
      <feComposite operator="in" in2="blur"/>
      <feComposite in="SourceGraphic"/>
    </filter>
  </defs>
  <g transform="matrix(1, 0, 0, 1, 0, 0)" filter="url(#Path_4567)">
    <path id="Path_4567-2" data-name="Path 4567" d="M-1914.146,1255.36a5.389,5.389,0,0,1,2.652-.21,9.457,9.457,0,0,1,7.3,4.9c.234.4.469.8.737,1.257,4.349-8.254,10.547-14.333,19.471-17.308l.128.117c-.1.123-.187.254-.294.368-2.345,2.5-4.72,4.969-7.031,7.5a57.848,57.848,0,0,0-7.185,9.454c-1.032,1.741-1.976,3.535-2.971,5.3-.408.723-.844,1.43-1.274,2.14a2.539,2.539,0,0,1-.293.381c-.376.416-.589.412-.869-.081q-1.156-2.032-2.271-4.087a35.421,35.421,0,0,0-3.695-5.873,18.013,18.013,0,0,0-4.238-3.753C-1914.012,1255.435-1914.049,1255.416-1914.146,1255.36Z" transform="translate(1923.15 -1237.99)" fill="#0d9e21"/>
  </g>
</svg>
